{"title":"Penthouse.Busty.Bar.Sluts.XXX.720p.WEBRiP.WMV-TBP","uid":11729792,"size":7796181479,"categoryP":"porn","categoryS":"movies","magnet":"?xt=urn:btih:9d0bdaee0741c6793b4e24b04e5d36a5a0c38db2&amp;dn=Penthouse.Busty.Bar.Sluts.XXX.720p.WEBRiP.WMV-TBP&amp;tr=udp%3A%2F%2Ftracker.openbittorrent.com%3A80&amp;tr=udp%3A%2F%2Fopen.demonii.com%3A1337&amp;tr=udp%3A%2F%2Ftracker.coppersurfer.tk%3A6969&amp;tr=udp%3A%2F%2Fexodus.desync.com%3A6969","seeders":1,"leechers":0,"uploader":"sceneline","files":82,"time":1425246522,"description":" &lt;a href=&quot;https://www.scenetime&quot; rel=&quot;nofollow&quot; target=&quot;_NEW&quot;&gt;https://www.scenetime&lt;/a&gt; dot com\n\nSign up is OPEN - for time being. Come and have fun.\n\nplease seed back as long as possible.\n\nfor info read NFO file\n\n================== NFO====================\n                  THE.BEST.PORN.GIVES \n\n\nPenthouse.Busty.Bar.Sluts.XXX.720p.WEBRiP.WMV-TBP \n\nWEBSITE     : http://www.data18.com/search/?t=0&amp;k=busty+bar+sluts&amp;ref=1\nTYPE        : WMV \nSIZE        : 78 x 100MB \n\nContent:\nPlease note: These results are based on original title from updates. Provided by site owner.\nBusty Bar Sluts 6: Horned Up Hottie\nBusty Bar Sluts 5: Hot, Young Snatch\nBusty Bar Sluts 4: Cute And Accommodating\nBusty Bar Sluts 3: Frequent Flyer\nBusty Bar Sluts 2: A Drink For Every Occasion\nBusty Bar Sluts 1: Dirty Girl\n\nGeneral\nComplete name                            : tbp.pbbars.wmv\nFormat                                   : Windows Media\nFile size                                : 7.18 GiB\nDuration                                 : 2h 6mn\nOverall bit rate                         : 8 105 Kbps\nMaximum Overall bit rate                 : 32.0 Kbps\nEncoded date                             : UTC 1970-01-01 00:00:00.000\nWM/EncodingSettings                      : Lavf56.4.101\n\nVideo\nID                                       : 1\nFormat                                   : WMV2\nCodec ID                                 : WMV2\nCodec ID/Info                            : Windows Media Video 8\nDescription of the codec                 : wmv2\nDuration                                 : 2h 6mn\nBit rate                                 : 7 743 Kbps\nWidth                                    : 1 280 pixels\nHeight                                   : 720 pixels\nDisplay aspect ratio                     : 16:9\nFrame rate                               : 29.970 fps\nBit depth                                : 8 bits\nBits/(Pixel*Frame)                       : 0.280\nStream size                              : 6.86 GiB (96%)\n\nAudio\nID                                       : 2\nFormat                                   : WMA\nFormat version                           : Version 2\nCodec ID                                 : 161\nCodec ID/Info                            : Windows Media Audio\nDescription of the codec                 : Windows Media Audio V8\nDuration                                 : 2h 6mn\nBit rate                                 : 32.0 Kbps\nChannel(s)                               : 1 channel\nSampling rate                            : 48.0 KHz\nBit depth                                : 16 bits\nStream size                              : 29.0 MiB (0%)\n\n\nREVIEW-URL  :  \n\n  Greetz to our good friends in GUSH \n   And the others which make this fun","torrent":{"xt":"urn:btih:9d0bdaee0741c6793b4e24b04e5d36a5a0c38db2","amp;dn":"Penthouse.Busty.Bar.Sluts.XXX.720p.WEBRiP.WMV-TBP","amp;tr":["udp%3A%2F%2Ftracker.openbittorrent.com%3A80","udp%3A%2F%2Fopen.demonii.com%3A1337","udp%3A%2F%2Ftracker.coppersurfer.tk%3A6969","udp%3A%2F%2Fexodus.desync.com%3A6969"],"infoHash":"9d0bdaee0741c6793b4e24b04e5d36a5a0c38db2","infoHashBuffer":{"type":"Buffer","data":[157,11,218,238,7,65,198,121,59,78,36,176,78,93,54,165,160,195,141,178]},"announce":[],"urlList":[]}}